<?xml version="1.0" encoding="UTF-8" standalone="no"?>
<svg
   xmlns:dc="http://purl.org/dc/elements/1.1/"
   xmlns:cc="http://creativecommons.org/ns#"
   xmlns:rdf="http://www.w3.org/1999/02/22-rdf-syntax-ns#"
   xmlns:svg="http://www.w3.org/2000/svg"
   xmlns="http://www.w3.org/2000/svg"
   xmlns:sodipodi="http://sodipodi.sourceforge.net/DTD/sodipodi-0.dtd"
   xmlns:inkscape="http://www.inkscape.org/namespaces/inkscape"
   id="svg"
   version="1.1"
   width="400"
   height="519.1709844559585"
   viewBox="0, 0, 400,519.1709844559585"
   sodipodi:docname="jastrzebik.svg"
   inkscape:version="0.92.4 (5da689c313, 2019-01-14)"
   inkscape:export-filename="C:\Users\karol\OneDrive\Pulpit\jastrzebik.png"
   inkscape:export-xdpi="210.35001"
   inkscape:export-ydpi="210.35001">
  <metadata
     id="metadata11">
    <rdf:RDF>
      <cc:Work
         rdf:about="">
        <dc:format>image/svg+xml</dc:format>
        <dc:type
           rdf:resource="http://purl.org/dc/dcmitype/StillImage" />
        <dc:title />
      </cc:Work>
    </rdf:RDF>
  </metadata>
  <defs
     id="defs9" />
  <sodipodi:namedview
     pagecolor="#ffffff"
     bordercolor="#666666"
     borderopacity="1"
     objecttolerance="10"
     gridtolerance="10"
     guidetolerance="10"
     inkscape:pageopacity="0"
     inkscape:pageshadow="2"
     inkscape:window-width="1920"
     inkscape:window-height="1013"
     id="namedview7"
     showgrid="false"
     inkscape:zoom="2.5714412"
     inkscape:cx="100.20267"
     inkscape:cy="222.94812"
     inkscape:window-x="-9"
     inkscape:window-y="-9"
     inkscape:window-maximized="1"
     inkscape:current-layer="svg" />
  <ellipse
     style="fill:#ffffff;stroke-width:9.54075623"
     id="path15-8"
     cx="26.055397"
     cy="282.67834"
     rx="23.316942"
     ry="45.20192"
     transform="matrix(0.9885998,-0.15056705,0.63513272,0.77240302,0,0)"
     inkscape:transform-center-x="-4.2874975"
     inkscape:transform-center-y="1.5664974" />
  <g
     id="svgg"
     transform="translate(-11.666609,82.444038)">
    <path
       id="path0"
       d="m 127.22183,50.599582 c -41.974004,24.649 -78.383248,139.260888 -83.164317,168.548268 0.361855,7.38614 -16.037591,7.6054 30.276801,-13.46571 1.801,23.243 30.496676,20.40723 21.909317,55.6602 87.015989,3.59738 103.993009,64.23033 171.979019,106.26311 29.21453,-20.31653 62.01452,-51.42406 62.01452,-51.42406 0,0 14.66927,13.93878 18.86535,12.69234 7.19753,-2.13801 7.63459,-40.07473 3.40336,-45.54034 -1.022,-1.32 -18.94098,-17.82637 -19.77598,-19.14637 -87.94496,-23.65119 -57.0919,-6.82764 -103.83537,-0.85761 -57.5427,-32.55463 -16.07887,20.62304 -89.23753,-57.45141 -1.113,-12.437 6.245,-16.282 38.343,-20.034 33.536,-3.92 41.93421,-3.32145 53.32221,-6.97345 9.778,-3.136 13.92287,-9.72742 5.28887,-11.72642 -14.434,-3.343 -39.82198,-12.74477 -46.00898,-17.52577 -4.267,-3.298 -6.02234,-5.22925 -9.94534,-19.33825 -3.712,-13.346 -11.21876,-23.00311 -12.34376,-24.70111 -1.122,-1.694 3.34051,-3.767 -6.05449,-7.399 -9.406,-3.636 -6.75701,-3.262339 -2.82201,-4.724339 13.671,-5.076 41.72331,-2.080678 59.00931,3.436322 8.36,2.669 7.27702,-2.823514 14.30302,14.003487 4.351,10.419 10.82909,26.2624 13.90809,31.0614 3.188,4.97 12.23251,8.51398 18.07651,4.36798 18.325,-13.001 34.22902,-14.3199 60.11102,-11.4099 14.999,1.686 13.73247,-1.14065 24.35847,9.61735 7.856,7.954 20.77027,8.38189 24.08327,5.75489 5.36,-4.249 5.00123,-15.34917 2.95623,-21.99217 -8.47,-27.519 -44.87593,-64.323516 -73.50193,-83.576516 -39.03832,-9.071116 -62.66867,-14.28889 -107.48772,-24.132596 -4.149,-0.681 -9.70962,-3.043554 -10.29162,-2.461554"
       inkscape:connector-curvature="0"
       style="fill:#883e17;fill-opacity:1;fill-rule:evenodd;stroke:none"
       sodipodi:nodetypes="ccccccsccccccccccccccccccccccc" />
    <path
       id="path1"
       d="m 307.93818,138.66061 c -19.13039,5.04909 -45.63783,14.81378 -58.59148,35.6896 -4.11636,6.63485 0.89135,6.95231 -19.05394,10.22844 -35.65529,5.85848 -55.23828,9.52287 -73.97003,9.52287 -7.03349,0 -2.01241,2.24758 -4.47583,8.3109 -2.21015,5.43782 -2.2509,6.75818 -0.34138,10.89106 3.00302,6.5005 5.33021,25.2901 18.2365,28.03764 15.49857,3.29816 34.15257,14.10785 52.64755,23.43628 41.67861,17.25843 61.61764,15.98845 81.15568,14.28715 36.02861,-15.60648 60.63772,-62.68426 54.19228,-109.33082 -2.64403,-19.1414 -3.38294,-20.94741 -9.88675,-24.18719 -13.32806,-6.63926 -29.96859,-9.51014 -39.9126,-6.88593"
       inkscape:connector-curvature="0"
       style="fill:#e8b218;fill-opacity:1;fill-rule:evenodd;stroke:none;stroke-width:1.10121965"
       sodipodi:nodetypes="cccscccccccc" />
    <path
       id="path2"
       d="M 130.978,23.2 C 67.860204,65.45942 26.403912,181.98713 37.474879,254.7731 c 8.669038,-2.36919 41.22958,-39.56923 40.992152,-32.17911 -0.92356,28.74656 -6.605752,61.91536 -0.30923,92.36695 54.966589,-89.03029 118.599419,9.17091 190.035169,75.52892 0,0 72.88663,-63.8165 67.21706,-64.33116 l 14.80153,10.42721 c 0,0 30.14802,-36.76144 -4.41156,-71.38191 18.28502,-32.41081 16.53382,-80.35005 34.622,-93.181 17.3735,-16.51067 24.49059,-21.96458 18.013,-40.223 -3.5,-9.865 -4.875,-13.082 -10.021,-23.443 C 359.15865,48.579355 314.54898,15.099152 253.32049,2.6967998 260.53458,11.951035 261.5813,15.20742 264.12773,20.260757 260.05912,20.060887 132.40936,-11.726634 107.93178,7.9993031 M 306.87779,76.007999 c 0,0 -6.07009,-13.022764 -9.05909,-21.417764 -2.198,-6.171 4.7393,-3.693235 13.4773,2.183765 28.626,19.253 51.032,47.502 59.502,75.021 2.045,6.643 1.626,8.021 -3.734,12.27 -3.313,2.627 -3.394,2.588 -11.25,-5.366 -10.626,-10.758 -14.415,-12.598 -29.414,-14.284 -25.882,-2.91 -45.286,1.52 -63.611,14.521 -5.844,4.146 -6.333,4.102 -9.521,-0.868 -3.079,-4.799 -6.446,-11.698 -10.797,-22.117 -7.026,-16.827 -9.443,-19.89 -17.803,-22.559 -17.286,-5.517 -63.616,-6.179 -77.287,-1.103 -3.935,1.462 -3.084,2.255 6.322,5.891 9.395,3.632 13.488,5.705 14.61,7.399 1.125,1.698 4.354,11.744 8.066,25.09 3.923,14.109 6.845,20.318 11.112,23.616 6.187,4.781 28.075,13.405 42.509,16.748 8.634,1.999 8.378,3.146 -1.4,6.282 -11.388,3.652 -17.064,4.609 -50.6,8.529 -32.098,3.752 -43.9282,2.34703 -40.87077,19.83956 24.53214,83.70786 169.61198,81.29952 169.61198,81.29952 l 25.15543,-6.52574 c 7.44531,-1.93144 16.14449,12.40128 6.30062,31.03097 L 324.72653,301.00552 C 313.91606,333.20359 297.4675,338.23418 269.15341,354.30987 184.9359,263.00744 153.22422,247.11464 105.88289,251.71925 c -12.644211,-52.32451 16.64225,-81.80518 7.51122,-89.57161 -3.01721,-2.5663 -46.899267,38.63473 -50.729802,35.2623 C 54.006668,189.78767 97.569749,80.179863 136.944,56.044 164.5753,34.974697 185.04448,31.766409 185.04448,31.766409 M 210.949,111.8 c 3.319,1.007 10.457,6.127 9.657,6.928 -0.097,0.096 -1.488,0.33 -3.091,0.519 -10.152,1.195 -11.651,2.817 -9.668,10.459 2.715,10.468 7.69242,11.37852 19.05942,14.79452 0,0 11.11426,7.18395 10.8526,8.80803 -0.33466,2.07712 2.62701,-1.13369 -11.39009,-2.27813 -17.086,-1.395 -32.56393,-17.98242 -29.78793,-29.87942 1.666,-7.141 8.02,-11.277 14.368,-9.351 m 101.367,31.423 c 9.544,1.041 24.03,6.098 27.84,9.719 2.402,2.284 4.394,10.462 5.664,23.258 4.488,45.202 -8.91639,79.66801 -44.21739,93.65301 -7.011,2.778 -13.1583,6.55776 -13.1933,-7.40724 -9.44094,-44.40066 -37.08027,-25.79228 -87.63948,-52.94823 -0.792,0 4.43551,11.30253 6.17751,12.89453 38.99382,22.11503 49.31751,11.76353 60.48866,36.70893 1.217,4.377 -0.694,7.453 -4.139,6.66 -56.40093,-16.04769 -81.73922,-29.80698 -108.271,-53.915 18.86183,-22.2279 41.74448,-16.93183 78.711,-22.632 16.83,-2.824 14.685,-1.835 19.035,-8.779 15.305,-24.432 39.288,-39.42 59.544,-37.212 M 285.8,164.935 c -7.451,4.009 -16.923,11.113 -16.495,12.371 0.125,0.366 2.029,0.502 7.332,0.526 3.94,0.018 7.464,0.063 7.832,0.1 1.387,0.14 3.13,2.211 5.116,6.077 2.137,4.16 5.625,8.791 6.622,8.791 2.097,0 0.313,-18.085 -2.486,-25.2 -1.949,-4.954 -3.005,-5.31 -7.921,-2.665"
       inkscape:connector-curvature="0"
       style="fill:#040404;fill-rule:evenodd;stroke:none"
       sodipodi:nodetypes="cccccccccccccccccccccccccccccccccccsccccsscccccccssccccccccccccccccccccscc" />
  </g>
  <ellipse
     style="fill:#ffffff;stroke-width:1.49574041"
     id="path15"
     cx="9.0150375"
     cy="292.82562"
     rx="3.4847777"
     ry="7.433619"
     transform="matrix(0.89054617,-0.45489286,0.67397498,0.73875417,0,0)"
     inkscape:transform-center-x="-0.64190858"
     inkscape:transform-center-y="0.12694125" />
</svg>
